<svg width="958" height="401" viewBox="0 0 958 401" fill="none" xmlns="http://www.w3.org/2000/svg">
<rect width="958" height="401" fill="#F5F5F5"/>
<path d="M1.2585 400.3L43.7694 274.316L183.828 34.1058" stroke="black"/>
<path d="M184 34.5L242 300L337 246.5" stroke="black"/>
<line x1="336.792" y1="246.545" x2="417.792" y2="209.545" stroke="black"/>
<line x1="418.303" y1="209.602" x2="536.303" y2="299.602" stroke="black"/>
<path d="M536 299.5L603.5 114L668 299.5" stroke="black"/>
<line x1="668.389" y1="299.686" x2="726.389" y2="371.686" stroke="black"/>
<line x1="725.855" y1="371.521" x2="884.856" y2="323.521" stroke="black"/>
<line x1="885.277" y1="323.584" x2="957.277" y2="371.584" stroke="black"/>
<path d="M612 105C612 109.971 608.194 114 603.5 114C598.806 114 595 109.971 595 105C595 100.029 598.806 96 603.5 96C608.194 96 612 100.029 612 105Z" fill="#F00408"/>
<path d="M193 26C193 30.9706 189.194 35 184.5 35C179.806 35 176 30.9706 176 26C176 21.0294 179.806 17 184.5 17C189.194 17 193 21.0294 193 26Z" fill="#F00408"/>
<path d="M147.47 12L152.349 2.34801V2.26278H146.724V1.09091H153.713V2.3267L148.855 12H147.47ZM159.022 12.1491C158.22 12.1491 157.536 11.9308 156.972 11.494C156.407 11.0536 155.976 10.4162 155.677 9.58168C155.379 8.74361 155.23 7.73153 155.23 6.54545C155.23 5.36648 155.379 4.35973 155.677 3.52521C155.979 2.68714 156.412 2.04794 156.977 1.6076C157.545 1.16371 158.227 0.941761 159.022 0.941761C159.818 0.941761 160.498 1.16371 161.063 1.6076C161.631 2.04794 162.064 2.68714 162.362 3.52521C162.664 4.35973 162.815 5.36648 162.815 6.54545C162.815 7.73153 162.666 8.74361 162.368 9.58168C162.069 10.4162 161.638 11.0536 161.073 11.494C160.509 11.9308 159.825 12.1491 159.022 12.1491ZM159.022 10.9773C159.818 10.9773 160.436 10.5937 160.876 9.8267C161.316 9.05966 161.537 7.96591 161.537 6.54545C161.537 5.60085 161.435 4.79652 161.233 4.13246C161.034 3.46839 160.747 2.96236 160.37 2.61435C159.997 2.26634 159.548 2.09233 159.022 2.09233C158.234 2.09233 157.618 2.48118 157.174 3.25888C156.73 4.03303 156.508 5.12855 156.508 6.54545C156.508 7.49006 156.608 8.29261 156.807 8.95312C157.005 9.61364 157.291 10.1161 157.664 10.4606C158.041 10.805 158.493 10.9773 159.022 10.9773ZM167.95 12.1705C167.268 12.1705 166.666 11.9982 166.144 11.6538C165.622 11.3058 165.214 10.8157 164.919 10.1836C164.624 9.54794 164.477 8.79688 164.477 7.9304C164.477 7.07102 164.624 6.32528 164.919 5.69318C165.214 5.06108 165.624 4.5728 166.15 4.22834C166.675 3.88388 167.282 3.71165 167.971 3.71165C168.504 3.71165 168.925 3.80043 169.234 3.97798C169.546 4.15199 169.784 4.35085 169.948 4.57457C170.114 4.79474 170.244 4.97585 170.336 5.1179H170.443V1.09091H171.7V12H170.486V10.7429H170.336C170.244 10.892 170.113 11.0803 169.942 11.3075C169.772 11.5312 169.528 11.7319 169.212 11.9094C168.896 12.0835 168.476 12.1705 167.95 12.1705ZM168.12 11.0412C168.625 11.0412 169.051 10.9098 169.399 10.647C169.747 10.3807 170.011 10.0131 170.193 9.54439C170.374 9.07209 170.464 8.52699 170.464 7.90909C170.464 7.2983 170.375 6.76385 170.198 6.30575C170.02 5.84411 169.758 5.48544 169.41 5.22976C169.062 4.97053 168.632 4.84091 168.12 4.84091C167.588 4.84091 167.144 4.97763 166.789 5.25107C166.437 5.52095 166.173 5.88849 165.995 6.35369C165.821 6.81534 165.734 7.33381 165.734 7.90909C165.734 8.49148 165.823 9.0206 166 9.49645C166.182 9.96875 166.448 10.3452 166.799 10.6257C167.155 10.9027 167.595 11.0412 168.12 11.0412ZM174.347 12V1.09091H178.161C178.921 1.09091 179.548 1.2223 180.042 1.48509C180.535 1.74432 180.903 2.0941 181.144 2.53445C181.386 2.97124 181.506 3.45597 181.506 3.98864C181.506 4.45739 181.423 4.84446 181.256 5.14986C181.093 5.45526 180.876 5.69673 180.606 5.87429C180.34 6.05185 180.051 6.18324 179.738 6.26847V6.375C180.072 6.39631 180.407 6.51349 180.745 6.72656C181.082 6.93963 181.364 7.24503 181.592 7.64276C181.819 8.04048 181.933 8.52699 181.933 9.10227C181.933 9.64915 181.808 10.141 181.56 10.5778C181.311 11.0146 180.919 11.3608 180.383 11.6165C179.846 11.8722 179.149 12 178.289 12H174.347ZM175.668 10.8281H178.289C179.152 10.8281 179.765 10.6612 180.127 10.3274C180.493 9.99006 180.676 9.58168 180.676 9.10227C180.676 8.73295 180.581 8.39205 180.393 8.07955C180.205 7.76349 179.937 7.51136 179.589 7.32315C179.241 7.13139 178.829 7.03551 178.353 7.03551H175.668V10.8281ZM175.668 5.88494H178.119C178.516 5.88494 178.875 5.80682 179.195 5.65057C179.518 5.49432 179.774 5.27415 179.962 4.99006C180.153 4.70597 180.249 4.37216 180.249 3.98864C180.249 3.50923 180.082 3.10263 179.749 2.76882C179.415 2.43146 178.886 2.26278 178.161 2.26278H175.668V5.88494ZM187.789 0.579545L184.274 13.6406H183.123L186.639 0.579545H187.789ZM193.093 1.09091V12H191.772V2.47585H191.708L189.045 4.24432V2.90199L191.772 1.09091H193.093ZM196.231 12V11.0412L199.832 7.09943C200.254 6.63778 200.602 6.23651 200.876 5.8956C201.149 5.55114 201.352 5.22798 201.483 4.92614C201.618 4.62074 201.685 4.30114 201.685 3.96733C201.685 3.58381 201.593 3.25178 201.408 2.97124C201.227 2.6907 200.979 2.47408 200.663 2.32138C200.347 2.16868 199.991 2.09233 199.597 2.09233C199.178 2.09233 198.812 2.17933 198.5 2.35334C198.191 2.52379 197.951 2.76349 197.781 3.07244C197.614 3.38139 197.531 3.74361 197.531 4.15909H196.273C196.273 3.51989 196.421 2.95881 196.716 2.47585C197.01 1.9929 197.412 1.61648 197.919 1.34659C198.431 1.0767 199.004 0.941761 199.64 0.941761C200.279 0.941761 200.846 1.0767 201.339 1.34659C201.833 1.61648 202.22 1.98047 202.5 2.43857C202.781 2.89666 202.921 3.40625 202.921 3.96733C202.921 4.36861 202.848 4.76101 202.703 5.14453C202.561 5.5245 202.312 5.94886 201.957 6.41761C201.605 6.88281 201.117 7.45099 200.492 8.12216L198.042 10.7429V10.8281H203.113V12H196.231ZM206.25 10.6044C205.988 10.6044 205.762 10.5103 205.574 10.3221C205.386 10.1339 205.292 9.90838 205.292 9.6456C205.292 9.38281 205.386 9.15732 205.574 8.9691C205.762 8.78089 205.988 8.68679 206.25 8.68679C206.513 8.68679 206.739 8.78089 206.927 8.9691C207.115 9.15732 207.209 9.38281 207.209 9.6456C207.209 9.8196 207.165 9.9794 207.076 10.125C206.991 10.2706 206.875 10.3878 206.73 10.4766C206.588 10.5618 206.428 10.6044 206.25 10.6044ZM206.25 5.08594C205.988 5.08594 205.762 4.99183 205.574 4.80362C205.386 4.61541 205.292 4.38991 205.292 4.12713C205.292 3.86435 205.386 3.63885 205.574 3.45064C205.762 3.26243 205.988 3.16832 206.25 3.16832C206.513 3.16832 206.739 3.26243 206.927 3.45064C207.115 3.63885 207.209 3.86435 207.209 4.12713C207.209 4.30114 207.165 4.46094 207.076 4.60653C206.991 4.75213 206.875 4.86932 206.73 4.9581C206.588 5.04332 206.428 5.08594 206.25 5.08594ZM213.279 1.09091V12H211.958V2.47585H211.894L209.231 4.24432V2.90199L211.958 1.09091H213.279ZM219.825 12.1491C219.2 12.1491 218.638 12.0249 218.137 11.7763C217.636 11.5277 217.235 11.1868 216.933 10.7536C216.631 10.3203 216.466 9.8267 216.438 9.27273H217.716C217.766 9.76634 217.99 10.1747 218.387 10.4979C218.789 10.8175 219.268 10.9773 219.825 10.9773C220.273 10.9773 220.671 10.8725 221.019 10.663C221.37 10.4535 221.645 10.1658 221.844 9.80007C222.047 9.43075 222.148 9.01349 222.148 8.5483C222.148 8.07244 222.043 7.64808 221.834 7.27521C221.628 6.89879 221.344 6.60227 220.981 6.38565C220.619 6.16903 220.205 6.05895 219.74 6.0554C219.406 6.05185 219.064 6.10334 218.712 6.20987C218.361 6.31285 218.071 6.44602 217.844 6.60938L216.608 6.46023L217.269 1.09091H222.936V2.26278H218.377L217.993 5.48011H218.057C218.281 5.30256 218.561 5.15518 218.899 5.038C219.236 4.92081 219.588 4.86222 219.953 4.86222C220.621 4.86222 221.216 5.02202 221.738 5.34162C222.263 5.65767 222.675 6.09091 222.974 6.64133C223.275 7.19176 223.426 7.82031 223.426 8.52699C223.426 9.22301 223.27 9.84446 222.958 10.3913C222.649 10.9347 222.222 11.3643 221.679 11.6804C221.136 11.9929 220.518 12.1491 219.825 12.1491ZM230.4 12H229.015L233.021 1.09091H234.385L238.39 12H237.005L233.745 2.81676H233.66L230.4 12ZM230.912 7.73864H236.494V8.91051H230.912V7.73864ZM240.09 1.09091H241.666L245.374 10.1463H245.502L249.209 1.09091H250.786V12H249.55V3.71165H249.443L246.034 12H244.841L241.432 3.71165H241.325V12H240.09V1.09091Z" fill="black"/>
<path d="M569.538 93.1491C568.913 93.1491 568.35 93.0249 567.85 92.7763C567.349 92.5277 566.948 92.1868 566.646 91.7536C566.344 91.3203 566.179 90.8267 566.151 90.2727H567.429C567.479 90.7663 567.702 91.1747 568.1 91.4979C568.501 91.8175 568.981 91.9773 569.538 91.9773C569.986 91.9773 570.384 91.8725 570.732 91.663C571.083 91.4535 571.358 91.1658 571.557 90.8001C571.76 90.4308 571.861 90.0135 571.861 89.5483C571.861 89.0724 571.756 88.6481 571.547 88.2752C571.341 87.8988 571.056 87.6023 570.694 87.3857C570.332 87.169 569.918 87.0589 569.453 87.0554C569.119 87.0518 568.777 87.1033 568.425 87.2099C568.074 87.3129 567.784 87.446 567.557 87.6094L566.321 87.4602L566.982 82.0909H572.649V83.2628H568.089L567.706 86.4801H567.77C567.994 86.3026 568.274 86.1552 568.612 86.038C568.949 85.9208 569.3 85.8622 569.666 85.8622C570.334 85.8622 570.929 86.022 571.451 86.3416C571.976 86.6577 572.388 87.0909 572.686 87.6413C572.988 88.1918 573.139 88.8203 573.139 89.527C573.139 90.223 572.983 90.8445 572.67 91.3913C572.362 91.9347 571.935 92.3643 571.392 92.6804C570.849 92.9929 570.231 93.1491 569.538 93.1491ZM578.75 93.1491C578.018 93.1491 577.372 93.0195 576.811 92.7603C576.253 92.4975 575.818 92.1371 575.506 91.679C575.193 91.2173 575.039 90.6918 575.042 90.1023C575.039 89.6406 575.129 89.2145 575.314 88.8239C575.498 88.4297 575.751 88.1012 576.07 87.8384C576.393 87.5721 576.754 87.4034 577.152 87.3324V87.2685C576.63 87.1335 576.214 86.8406 575.905 86.3896C575.596 85.935 575.443 85.4183 575.447 84.8395C575.443 84.2855 575.584 83.7901 575.868 83.3533C576.152 82.9165 576.543 82.5721 577.04 82.32C577.54 82.0678 578.11 81.9418 578.75 81.9418C579.382 81.9418 579.946 82.0678 580.443 82.32C580.941 82.5721 581.331 82.9165 581.615 83.3533C581.903 83.7901 582.049 84.2855 582.052 84.8395C582.049 85.4183 581.891 85.935 581.578 86.3896C581.269 86.8406 580.859 87.1335 580.348 87.2685V87.3324C580.742 87.4034 581.097 87.5721 581.413 87.8384C581.729 88.1012 581.981 88.4297 582.169 88.8239C582.358 89.2145 582.453 89.6406 582.457 90.1023C582.453 90.6918 582.294 91.2173 581.978 91.679C581.665 92.1371 581.23 92.4975 580.672 92.7603C580.119 93.0195 579.478 93.1491 578.75 93.1491ZM578.75 91.9773C579.243 91.9773 579.669 91.8974 580.028 91.7376C580.387 91.5778 580.664 91.3523 580.859 91.0611C581.054 90.7699 581.154 90.429 581.157 90.0384C581.154 89.6264 581.047 89.2624 580.838 88.9464C580.628 88.6303 580.342 88.3817 579.98 88.2006C579.621 88.0195 579.211 87.929 578.75 87.929C578.284 87.929 577.869 88.0195 577.503 88.2006C577.141 88.3817 576.855 88.6303 576.646 88.9464C576.44 89.2624 576.338 89.6264 576.342 90.0384C576.338 90.429 576.432 90.7699 576.624 91.0611C576.82 91.3523 577.098 91.5778 577.46 91.7376C577.823 91.8974 578.252 91.9773 578.75 91.9773ZM578.75 86.7997C579.14 86.7997 579.486 86.7216 579.788 86.5653C580.094 86.4091 580.333 86.1907 580.507 85.9102C580.681 85.6296 580.77 85.3011 580.774 84.9247C580.77 84.5554 580.683 84.234 580.513 83.9606C580.342 83.6836 580.106 83.4705 579.804 83.3214C579.502 83.1687 579.151 83.0923 578.75 83.0923C578.341 83.0923 577.984 83.1687 577.679 83.3214C577.373 83.4705 577.137 83.6836 576.97 83.9606C576.804 84.234 576.722 84.5554 576.725 84.9247C576.722 85.3011 576.805 85.6296 576.976 85.9102C577.15 86.1907 577.389 86.4091 577.695 86.5653C578 86.7216 578.352 86.7997 578.75 86.7997ZM587.609 93.1705C586.927 93.1705 586.325 92.9982 585.803 92.6538C585.281 92.3058 584.873 91.8157 584.578 91.1836C584.284 90.5479 584.136 89.7969 584.136 88.9304C584.136 88.071 584.284 87.3253 584.578 86.6932C584.873 86.0611 585.283 85.5728 585.809 85.2283C586.334 84.8839 586.942 84.7116 587.631 84.7116C588.163 84.7116 588.584 84.8004 588.893 84.978C589.205 85.152 589.443 85.3509 589.607 85.5746C589.774 85.7947 589.903 85.9759 589.996 86.1179H590.102V82.0909H591.359V93H590.145V91.7429H589.996C589.903 91.892 589.772 92.0803 589.601 92.3075C589.431 92.5312 589.188 92.7319 588.872 92.9094C588.556 93.0835 588.135 93.1705 587.609 93.1705ZM587.78 92.0412C588.284 92.0412 588.71 91.9098 589.058 91.647C589.406 91.3807 589.671 91.0131 589.852 90.5444C590.033 90.0721 590.123 89.527 590.123 88.9091C590.123 88.2983 590.035 87.7638 589.857 87.3058C589.68 86.8441 589.417 86.4854 589.069 86.2298C588.721 85.9705 588.291 85.8409 587.78 85.8409C587.247 85.8409 586.803 85.9776 586.448 86.2511C586.096 86.521 585.832 86.8885 585.654 87.3537C585.48 87.8153 585.393 88.3338 585.393 88.9091C585.393 89.4915 585.482 90.0206 585.66 90.4964C585.841 90.9687 586.107 91.3452 586.459 91.6257C586.814 91.9027 587.254 92.0412 587.78 92.0412ZM594.007 93V82.0909H597.82C598.58 82.0909 599.207 82.2223 599.701 82.4851C600.194 82.7443 600.562 83.0941 600.803 83.5344C601.045 83.9712 601.166 84.456 601.166 84.9886C601.166 85.4574 601.082 85.8445 600.915 86.1499C600.752 86.4553 600.535 86.6967 600.265 86.8743C599.999 87.0518 599.71 87.1832 599.397 87.2685V87.375C599.731 87.3963 600.067 87.5135 600.404 87.7266C600.741 87.9396 601.024 88.245 601.251 88.6428C601.478 89.0405 601.592 89.527 601.592 90.1023C601.592 90.6491 601.468 91.141 601.219 91.5778C600.97 92.0146 600.578 92.3608 600.042 92.6165C599.506 92.8722 598.808 93 597.948 93H594.007ZM595.328 91.8281H597.948C598.811 91.8281 599.424 91.6612 599.786 91.3274C600.152 90.9901 600.335 90.5817 600.335 90.1023C600.335 89.733 600.241 89.392 600.052 89.0795C599.864 88.7635 599.596 88.5114 599.248 88.3232C598.9 88.1314 598.488 88.0355 598.012 88.0355H595.328V91.8281ZM595.328 86.8849H597.778C598.176 86.8849 598.534 86.8068 598.854 86.6506C599.177 86.4943 599.433 86.2741 599.621 85.9901C599.813 85.706 599.909 85.3722 599.909 84.9886C599.909 84.5092 599.742 84.1026 599.408 83.7688C599.074 83.4315 598.545 83.2628 597.82 83.2628H595.328V86.8849ZM607.449 81.5795L603.933 94.6406H602.782L606.298 81.5795H607.449ZM612.753 82.0909V93H611.432V83.4759H611.368L608.704 85.2443V83.902L611.432 82.0909H612.753ZM619.384 93.1491C618.653 93.1491 618.006 93.0195 617.445 92.7603C616.888 92.4975 616.453 92.1371 616.14 91.679C615.828 91.2173 615.673 90.6918 615.677 90.1023C615.673 89.6406 615.764 89.2145 615.949 88.8239C616.133 88.4297 616.385 88.1012 616.705 87.8384C617.028 87.5721 617.389 87.4034 617.786 87.3324V87.2685C617.264 87.1335 616.849 86.8406 616.54 86.3896C616.231 85.935 616.078 85.4183 616.082 84.8395C616.078 84.2855 616.218 83.7901 616.503 83.3533C616.787 82.9165 617.177 82.5721 617.674 82.32C618.175 82.0678 618.745 81.9418 619.384 81.9418C620.016 81.9418 620.581 82.0678 621.078 82.32C621.575 82.5721 621.966 82.9165 622.25 83.3533C622.538 83.7901 622.683 84.2855 622.687 84.8395C622.683 85.4183 622.525 85.935 622.213 86.3896C621.904 86.8406 621.494 87.1335 620.982 87.2685V87.3324C621.377 87.4034 621.732 87.5721 622.048 87.8384C622.364 88.1012 622.616 88.4297 622.804 88.8239C622.992 89.2145 623.088 89.6406 623.092 90.1023C623.088 90.6918 622.928 91.2173 622.612 91.679C622.3 92.1371 621.865 92.4975 621.307 92.7603C620.753 93.0195 620.112 93.1491 619.384 93.1491ZM619.384 91.9773C619.878 91.9773 620.304 91.8974 620.663 91.7376C621.021 91.5778 621.298 91.3523 621.494 91.0611C621.689 90.7699 621.788 90.429 621.792 90.0384C621.788 89.6264 621.682 89.2624 621.472 88.9464C621.263 88.6303 620.977 88.3817 620.615 88.2006C620.256 88.0195 619.846 87.929 619.384 87.929C618.919 87.929 618.504 88.0195 618.138 88.2006C617.776 88.3817 617.49 88.6303 617.28 88.9464C617.074 89.2624 616.973 89.6264 616.977 90.0384C616.973 90.429 617.067 90.7699 617.259 91.0611C617.454 91.3523 617.733 91.5778 618.095 91.7376C618.457 91.8974 618.887 91.9773 619.384 91.9773ZM619.384 86.7997C619.775 86.7997 620.121 86.7216 620.423 86.5653C620.728 86.4091 620.968 86.1907 621.142 85.9102C621.316 85.6296 621.405 85.3011 621.408 84.9247C621.405 84.5554 621.318 84.234 621.147 83.9606C620.977 83.6836 620.741 83.4705 620.439 83.3214C620.137 83.1687 619.786 83.0923 619.384 83.0923C618.976 83.0923 618.619 83.1687 618.314 83.3214C618.008 83.4705 617.772 83.6836 617.605 83.9606C617.438 84.234 617.357 84.5554 617.36 84.9247C617.357 85.3011 617.44 85.6296 617.611 85.9102C617.785 86.1907 618.024 86.4091 618.33 86.5653C618.635 86.7216 618.987 86.7997 619.384 86.7997ZM626.071 91.6044C625.808 91.6044 625.582 91.5103 625.394 91.3221C625.206 91.1339 625.112 90.9084 625.112 90.6456C625.112 90.3828 625.206 90.1573 625.394 89.9691C625.582 89.7809 625.808 89.6868 626.071 89.6868C626.333 89.6868 626.559 89.7809 626.747 89.9691C626.935 90.1573 627.029 90.3828 627.029 90.6456C627.029 90.8196 626.985 90.9794 626.896 91.125C626.811 91.2706 626.696 91.3878 626.55 91.4766C626.408 91.5618 626.248 91.6044 626.071 91.6044ZM626.071 86.0859C625.808 86.0859 625.582 85.9918 625.394 85.8036C625.206 85.6154 625.112 85.3899 625.112 85.1271C625.112 84.8643 625.206 84.6388 625.394 84.4506C625.582 84.2624 625.808 84.1683 626.071 84.1683C626.333 84.1683 626.559 84.2624 626.747 84.4506C626.935 84.6388 627.029 84.8643 627.029 85.1271C627.029 85.3011 626.985 85.4609 626.896 85.6065C626.811 85.7521 626.696 85.8693 626.55 85.9581C626.408 86.0433 626.248 86.0859 626.071 86.0859ZM629.264 93V92.0412L632.865 88.0994C633.287 87.6378 633.635 87.2365 633.909 86.8956C634.182 86.5511 634.385 86.228 634.516 85.9261C634.651 85.6207 634.719 85.3011 634.719 84.9673C634.719 84.5838 634.626 84.2518 634.442 83.9712C634.26 83.6907 634.012 83.4741 633.696 83.3214C633.38 83.1687 633.025 83.0923 632.631 83.0923C632.211 83.0923 631.846 83.1793 631.533 83.3533C631.224 83.5238 630.985 83.7635 630.814 84.0724C630.647 84.3814 630.564 84.7436 630.564 85.1591H629.307C629.307 84.5199 629.454 83.9588 629.749 83.4759C630.044 82.9929 630.445 82.6165 630.953 82.3466C631.464 82.0767 632.037 81.9418 632.673 81.9418C633.312 81.9418 633.879 82.0767 634.372 82.3466C634.866 82.6165 635.253 82.9805 635.534 83.4386C635.814 83.8967 635.954 84.4062 635.954 84.9673C635.954 85.3686 635.882 85.761 635.736 86.1445C635.594 86.5245 635.345 86.9489 634.99 87.4176C634.639 87.8828 634.15 88.451 633.525 89.1222L631.075 91.7429V91.8281H636.146V93H629.264ZM638.687 93L643.566 83.348V83.2628H637.941V82.0909H644.93V83.3267L640.072 93H638.687ZM647.107 93V82.0909H650.793C651.649 82.0909 652.349 82.2454 652.892 82.5543C653.439 82.8597 653.844 83.2734 654.106 83.7955C654.369 84.3175 654.501 84.8999 654.501 85.5426C654.501 86.1854 654.369 86.7695 654.106 87.2951C653.847 87.8207 653.446 88.2397 652.903 88.5522C652.359 88.8612 651.663 89.0156 650.815 89.0156H648.172V87.8438H650.772C651.358 87.8438 651.828 87.7425 652.184 87.5401C652.539 87.3377 652.796 87.0643 652.956 86.7198C653.119 86.3718 653.201 85.9794 653.201 85.5426C653.201 85.1058 653.119 84.7152 652.956 84.3707C652.796 84.0263 652.537 83.7564 652.178 83.5611C651.82 83.3622 651.344 83.2628 650.751 83.2628H648.428V93H647.107ZM656.629 82.0909H658.205L661.913 91.1463H662.041L665.748 82.0909H667.325V93H666.089V84.7116H665.982L662.573 93H661.38L657.971 84.7116H657.864V93H656.629V82.0909Z" fill="black"/>
</svg>
